<svg width="91" height="91" viewBox="0 0 91 91" fill="none" xmlns="http://www.w3.org/2000/svg">
<rect width="91" height="91" fill="#2978CF"/>
<path opacity="0.4" d="M55.5659 16.8729H64.8738C68.7286 16.8729 71.8521 20.0228 71.8521 23.9101V33.2966C71.8521 37.184 68.7286 40.3339 64.8738 40.3339H55.5659C51.7111 40.3339 48.5876 37.184 48.5876 33.2966V23.9101C48.5876 20.0228 51.7111 16.8729 55.5659 16.8729" fill="white"/>
<path fill-rule="evenodd" clip-rule="evenodd" d="M23.8512 16.8729H33.1591C37.0139 16.8729 40.1374 20.0228 40.1374 23.9101V33.2966C40.1374 37.184 37.0139 40.3339 33.1591 40.3339H23.8512C19.9964 40.3339 16.8729 37.184 16.8729 33.2966V23.9101C16.8729 20.0228 19.9964 16.8729 23.8512 16.8729ZM23.8512 48.3911H33.1591C37.0139 48.3911 40.1374 51.541 40.1374 55.4284V64.8149C40.1374 68.6996 37.0139 71.8521 33.1591 71.8521H23.8512C19.9964 71.8521 16.8729 68.6996 16.8729 64.8149V55.4284C16.8729 51.541 19.9964 48.3911 23.8512 48.3911ZM64.8738 48.3911H55.5659C51.7111 48.3911 48.5876 51.541 48.5876 55.4284V64.8149C48.5876 68.6996 51.7111 71.8521 55.5659 71.8521H64.8738C68.7286 71.8521 71.8521 68.6996 71.8521 64.8149V55.4284C71.8521 51.541 68.7286 48.3911 64.8738 48.3911Z" fill="white"/>
</svg>
