<svg width="71" height="71" viewBox="0 0 71 71" fill="none" xmlns="http://www.w3.org/2000/svg">
<rect width="71" height="71" fill="white"/>
<path opacity="0.4" d="M43.3536 13.1646H50.6158C53.6234 13.1646 56.0604 15.6222 56.0604 18.6552V25.9787C56.0604 29.0117 53.6234 31.4693 50.6158 31.4693H43.3536C40.346 31.4693 37.909 29.0117 37.909 25.9787V18.6552C37.909 15.6222 40.346 13.1646 43.3536 13.1646" fill="#2978CF"/>
<path fill-rule="evenodd" clip-rule="evenodd" d="M25.8714 37.7557H18.6092C15.6016 37.7557 13.1646 40.2133 13.1646 43.2463V50.5698C13.1646 53.6008 15.6016 56.0604 18.6092 56.0604H25.8714C28.879 56.0604 31.316 53.6008 31.316 50.5698V43.2463C31.316 40.2133 28.879 37.7557 25.8714 37.7557ZM50.6158 37.7557H43.3536C40.346 37.7557 37.909 40.2133 37.909 43.2463V50.5698C37.909 53.6008 40.346 56.0604 43.3536 56.0604H50.6158C53.6234 56.0604 56.0604 53.6008 56.0604 50.5698V43.2463C56.0604 40.2133 53.6234 37.7557 50.6158 37.7557Z" fill="#FFD700"/>
<path d="M18.5236 13.0789H25.7857C28.7933 13.0789 31.2303 15.5366 31.2303 18.5695V25.8931C31.2303 28.926 28.7933 31.3836 25.7857 31.3836H18.5236C15.516 31.3836 13.0789 28.926 13.0789 25.8931V18.5695C13.0789 15.5366 15.516 13.0789 18.5236 13.0789Z" fill="#2978CF"/>
</svg>
